# xmcd
#
# Track frame offsets:
#	150
#	13940
#	28955
#	58260
#	71932
#	90472
#	105055
#	118930
#	158242
#	176667
#	191140
#	207662
#	226397
#	237170
#
# Disc length: 3358
#
# Revision: 1
# Processed by: cddbd v1.5.1PL0 Copyright (c) Steve Scherf et al.
# Submitted via: CDex 1.50
# Normalized: r0:TDELIM( - )
#
DISCID=ca0d1c0e
DTITLE=Various Artist - It's double jazz time CD1
DYEAR=1993
DGENRE=Jazz
TTITLE0=Duke Ellington - Take the 'A' train
TTITLE1=Tom Dorsey - Marie
TTITLE2=Thelonious Monk - Epistrophy
TTITLE3=New Orleans Rhythm Kings - Panama
TTITLE4=Count Basie - One o' clock jump
TTITLE5=Artie Shaw - Back bay shuffle
TTITLE6=Dizzy Gillespie - I can't get started with you
TTITLE7=Art Blakey - Along came Betty
TTITLE8=John Coltrane - Naima
TTITLE9=Stan Kenton - All the things you are
TTITLE10=Chet Baker - Autumn in New York
TTITLE11=Stan Getz - All God's chillun got rhythm
TTITLE12=Jimmy Lunceford - For dancers only
TTITLE13=Louis Armstrong - Wild man blues
EXTD=YEAR: 1993
EXTT0=
EXTT1=
EXTT2=
EXTT3=
EXTT4=
EXTT5=
EXTT6=
EXTT7=
EXTT8=
EXTT9=
EXTT10=
EXTT11=
EXTT12=
EXTT13=
PLAYORDER=
